<?xml version="1.0" encoding="utf-8"?>
<!-- Generator: Adobe Illustrator 26.1.0, SVG Export Plug-In . SVG Version: 6.00 Build 0)  -->
<svg version="1.1" id="Layer_1" xmlns="http://www.w3.org/2000/svg" xmlns:xlink="http://www.w3.org/1999/xlink" x="0px" y="0px"
	 viewBox="0 0 330 330" style="enable-background:new 0 0 330 330;" xml:space="preserve">
<style type="text/css">
	.st0{fill:#2C2C2C;stroke:#F0CB83;stroke-width:6;stroke-miterlimit:10;}
	.st1{fill:#F0CB83;}
</style>
<path class="st0" d="M254.7,315.2H74.9c-33.2,0-60.1-26.9-60.1-60.1V75.3c0-33.2,26.9-60.1,60.1-60.1h179.8
	c33.2,0,60.1,26.9,60.1,60.1v179.8C314.8,288.3,287.9,315.2,254.7,315.2z"/>
<g>
	<path class="st1" d="M190.4,212.2h-51.5l-9,28H89.8l57.1-150h35.3l57.6,150h-40.3L190.4,212.2z M147.9,184.3h33.5l-16.8-52
		L147.9,184.3z"/>
</g>
<image style="overflow:visible;" width="1908" height="934" xlink:href="3FBD36DA.jpg"  transform="matrix(0.3893 0 0 0.3893 -926.7391 -308.6944)">
</image>
</svg>
