<svg xmlns="http://www.w3.org/2000/svg" xmlns:xlink="http://www.w3.org/1999/xlink" viewBox="0 0 82 81" fill="#fff" fill-rule="evenodd" stroke="#000" stroke-linecap="round" stroke-linejoin="round"><use xlink:href="#A" x=".5" y=".5"/><symbol id="A" overflow="visible"><g stroke="none"><path d="M64.309 71.757C57.061 77.3 48.521 80 40.041 80c-12.032 0-23.93-5.403-31.792-15.688C-5.184 46.769-1.869 21.681 15.702 8.239 22.949 2.661 31.497 0 39.966 0c12.032 0 23.933 5.403 31.792 15.698 13.437 17.538 10.088 42.631-7.45 56.059" fill="#59b4d9"/><path d="M56.96 47.014c2.906 3.79 8.298 4.475 12.066 1.607.197-.15.349-.333.528-.495l8.04 5.535c.446-1.157.755-2.268 1.072-3.428-1.594-1.186-3.749-2.845-6.864-5.371 1.022-2.688.699-5.825-1.168-8.275-2.67-3.457-7.402-4.335-11.098-2.204-4.074-3.655-8.549-7.845-13.269-12.535 14.664-7.888 25.081-6.733 25.081-6.733-1.739-2.218-3.688-4.161-5.77-5.916-6.184-.955-15.79-.848-26.766 4.991l-.003-.005h-.001c-3.658-3.83-7.381-7.934-11.173-12.342a37.21 37.21 0 0 0-5.299 2.156c2.798 4.58 6.563 9.2 10.806 13.707h0c.008.01.018.018.027.027-3.538 2.474-7.477 5.782-11.111 9.626a60.45 60.45 0 0 0-1.347 1.49 12.07 12.07 0 0 0-6.587.451c-3.623-7.818-3.331-14.097-2.759-17.335-1.573 1.648-3.042 3.382-4.307 5.228-.945 3.865-1.214 9.439 1.576 16.155-3.23 4.228-3.382 10.224-.008 14.648.282.367.582.707.894 1.032-1.474 5.02-2.133 9.863-2.336 14.02.379.515.379.931.755 1.434 1.919 2.461 4.328 4.535 6.656 6.414-.288-4.401.022-10.892 2.742-18.199 1.877.142 3.786-.154 5.573-.906 1.024.901 2.096 1.812 3.24 2.738 3.925 3.108 7.84 5.526 11.656 7.43-.199 1.941.288 3.959 1.549 5.63 2.696 3.482 7.688 4.132 11.173 1.471.725-.555 1.298-1.226 1.773-1.946 6.222 1.386 11.659 1.631 15.69 1.631.617 0 3.483-3.898 5.125-6.315-2.454.514-9.733 1.514-19.68-1.344-.24-1.117-.699-2.202-1.437-3.169-2.526-3.313-7.145-4.03-10.589-1.813-3.458-1.876-7.078-4.226-10.813-7.185a74.41 74.41 0 0 1-2.174-1.789 12.13 12.13 0 0 0 .509-12.082l1.394-1.371c3.698-3.455 7.176-6.22 10.43-8.44-.131-.122-.25-.25-.378-.373l.382.363c4.99 4.62 10.285 8.997 15.299 12.908-1.326 2.813-1.118 6.24.899 8.877z"/></g></symbol></svg>