<?xml version="1.0" encoding="utf-8"?>
<!-- Generator: Adobe Illustrator 26.1.0, SVG Export Plug-In . SVG Version: 6.00 Build 0)  -->
<svg version="1.1" id="Layer_1" xmlns="http://www.w3.org/2000/svg" xmlns:xlink="http://www.w3.org/1999/xlink" x="0px" y="0px"
	 viewBox="0 0 114.2 82.5" style="enable-background:new 0 0 114.2 82.5;" xml:space="preserve">
<style type="text/css">
	.st0{fill:#2496ED;}
</style>
<path class="st0" d="M111.9,31.5c-2.6-1.8-8.5-2.5-13.1-1.6c-0.5-4.5-3-8.4-7.3-11.8l-2.5-1.8l-1.7,2.6c-2.2,3.8-3.2,8.1-2.9,12.5
	c0.2,2.4,1,4.8,2.2,6.8c-2.7,1.4-5.7,2.1-8.7,2H0.5l-0.2,0.9c-0.8,4.5-0.8,18.4,8,29.1c6.6,8.2,16.5,12.3,29.5,12.3
	c28.1,0,48.9-13.5,58.6-37.9c3.9,0.1,12.1,0,16.3-8.4c0.1-0.2,0.3-0.7,1.1-2.3l0.4-0.9L111.9,31.5L111.9,31.5z M62.5,0H50.7v11.2
	h11.8V0z M62.5,13.4H50.7v11.2h11.8V13.4z M48.5,13.4H36.8v11.2h11.8L48.5,13.4L48.5,13.4z M34.6,13.4H22.8v11.2h11.8L34.6,13.4
	L34.6,13.4z M20.7,26.8H8.9v11.2h11.8L20.7,26.8L20.7,26.8z M34.6,26.8H22.8v11.2h11.8L34.6,26.8L34.6,26.8z M48.5,26.8H36.8v11.2
	h11.8L48.5,26.8L48.5,26.8z M62.5,26.8H50.7v11.2h11.8V26.8L62.5,26.8z M76.4,26.8H64.6v11.2h11.8L76.4,26.8L76.4,26.8z"/>
</svg>
