<?xml version="1.0" encoding="utf-8"?>
<!-- Generator: Adobe Illustrator 26.1.0, SVG Export Plug-In . SVG Version: 6.00 Build 0)  -->
<svg version="1.1" id="Layer_1" xmlns="http://www.w3.org/2000/svg" xmlns:xlink="http://www.w3.org/1999/xlink" x="0px" y="0px"
	 viewBox="0 0 160 160" style="enable-background:new 0 0 160 160;" xml:space="preserve">
<style type="text/css">
	.st0{fill:url(#path-2_00000007429203810420543120000012689290095812653199_);}
	.st1{fill:#FFA000;}
	.st2{opacity:0.12;enable-background:new    ;}
	.st3{fill:#F57C00;}
	.st4{opacity:0.2;enable-background:new    ;}
	.st5{fill:#FFCA28;}
	.st6{fill:#FFFFFF;fill-opacity:0.2;}
	.st7{opacity:0.2;fill:#A52714;enable-background:new    ;}
	.st8{fill:none;}
	.st9{filter:url(#Adobe_OpacityMaskFilter);}
	.st10{fill-rule:evenodd;clip-rule:evenodd;fill:#FFFFFF;}
	
		.st11{mask:url(#mask-3_00000110430841383158520900000014680864199063975835_);fill:url(#_Path_5_00000015322396053549206250000000006734690460237743_);}
</style>
<g id="Page-1">
	<g id="styleguide" transform="translate(-664.000000, -1272.000000)">
		<g id="Group-16" transform="translate(40.000000, 1187.000000)">
			<g id="Group-9" transform="translate(114.000000, 0.000000)">
				<g id="Group-26" transform="translate(405.000000, 1.000000)">
					<g id="logo_lockup_firebase_vertical" transform="translate(105.193370, 83.977901)">
						<g id="_Group_">
							<g id="_Path_5">
								
									<linearGradient id="path-2_00000134954394937799191330000006601418932982908056_" gradientUnits="userSpaceOnUse" x1="-446.5836" y1="4.9024" x2="-445.5405" y2="5.661" gradientTransform="matrix(109.5018 0 0 150.0389 48922.8984 -705.3923)">
									<stop  offset="0" style="stop-color:#FFFFFF;stop-opacity:0.1"/>
									<stop  offset="1" style="stop-color:#FFFFFF;stop-opacity:0"/>
								</linearGradient>
								
									<path id="path-2_00000080886607873502109560000002822522496138418099_" style="fill:url(#path-2_00000134954394937799191330000006601418932982908056_);" d="
									M120.3,38.1c-0.2-1.3-1.1-2.3-2.3-2.7c-1.2-0.4-2.6-0.1-3.5,0.8L96.8,54.1l-14-26.5c-0.6-1.1-1.7-1.9-3-1.9s-2.4,0.7-3,1.9
									L69.1,42L49.9,6.4c-1.5-2.9-5.9-2.1-6.4,1.1L25,125.7l49.5,27.7c3.1,1.7,6.9,1.7,10,0l50-27.7L120.3,38.1z"/>
							</g>
							<g id="_Group_2">
								<g transform="translate(-6.346125, -0.160154)">
									<g id="_Group_3">
										<path id="_Path_" class="st1" d="M31.3,125.8L49.9,7.7c0.5-3.2,4.9-4,6.4-1.1l19.2,35.6l7.6-14.5c0.6-1.1,1.8-1.8,3-1.8
											c1.3,0,2.4,0.7,3,1.8l51.7,98.1C140.8,125.8,31.3,125.8,31.3,125.8z"/>
										<g id="_Group_4" transform="translate(0.000000, 30.119310)">
											<g class="st2">
											</g>
											<polygon id="Shape" class="st3" points="95.3,49.7 75.4,12.1 31.3,95.7 											"/>
										</g>
									</g>
									<g id="_Group_5" transform="translate(3.421930, 23.299844)">
										<g class="st4">
										</g>
										<g id="_Group_6" transform="translate(3.421930, 7.387755)">
											<path id="_Path_2" class="st5" d="M134,95.1L119.8,7.6c-0.2-1.3-1.1-2.3-2.3-2.7s-2.6-0.1-3.5,0.8L24.5,95.1L74,122.8
												c3.1,1.7,6.9,1.7,10,0L134,95.1z"/>
										</g>
									</g>
									<path id="_Compound_Path_" class="st6" d="M126.6,38.3c-0.2-1.3-1.1-2.3-2.3-2.7s-2.6-0.1-3.5,0.8l-17.7,17.8l-14-26.5
										c-0.6-1.1-1.7-1.9-3-1.9s-2.4,0.7-3,1.9l-7.6,14.5L56.2,6.6c-1.5-2.9-5.9-2.1-6.4,1.1L31.3,125.8h-0.1l0.1,0.1l0.5,0.3
										L103,55.1l17.8-17.7c0.9-0.9,2.3-1.2,3.5-0.8s2.1,1.4,2.3,2.7l14,86.7l0.2-0.1L126.6,38.3z M31.5,125.7L49.9,8.5
										c0.5-3.2,4.9-4,6.4-1.1L75.5,43l7.6-14.5c0.6-1.1,1.8-1.8,3-1.8c1.3,0,2.4,0.7,3,1.8l13.7,25.9L31.5,125.7z"/>
									<path id="_Path_3" class="st7" d="M90.9,152.7c-3.1,1.7-6.9,1.7-10,0l-49.4-27.6l-0.1,0.8l49.5,27.7c3.1,1.7,6.9,1.7,10,0
										l50-27.7l-0.1-0.8L90.9,152.7z"/>
								</g>
							</g>
							<polygon id="_Path_4" class="st8" points="-2.4,-2.2 161.9,-2.2 161.9,161.5 -2.4,161.5 							"/>
							<defs>
								<filter id="Adobe_OpacityMaskFilter" filterUnits="userSpaceOnUse" x="25" y="4.6" width="109.5" height="150.1">
									<feColorMatrix  type="matrix" values="1 0 0 0 0  0 1 0 0 0  0 0 1 0 0  0 0 0 1 0"/>
								</filter>
							</defs>
							
								<mask maskUnits="userSpaceOnUse" x="25" y="4.6" width="109.5" height="150.1" id="mask-3_00000110430841383158520900000014680864199063975835_">
								<g class="st9">
									<path id="path-2_00000092420848165376134060000004697375015615625912_" class="st10" d="M120.3,38.1
										c-0.2-1.3-1.1-2.3-2.3-2.7c-1.2-0.4-2.6-0.1-3.5,0.8L96.8,54.1l-14-26.5c-0.6-1.1-1.7-1.9-3-1.9s-2.4,0.7-3,1.9L69.1,42
										L49.9,6.4c-1.5-2.9-5.9-2.1-6.4,1.1L25,125.7l49.5,27.7c3.1,1.7,6.9,1.7,10,0l50-27.7L120.3,38.1z"/>
								</g>
							</mask>
							
								<linearGradient id="_Path_5_00000087410060686365692070000002922688502450022324_" gradientUnits="userSpaceOnUse" x1="-446.5836" y1="4.9024" x2="-445.5405" y2="5.661" gradientTransform="matrix(109.5018 0 0 150.0389 48922.8984 -705.3923)">
								<stop  offset="0" style="stop-color:#FFFFFF;stop-opacity:0.1"/>
								<stop  offset="1" style="stop-color:#FFFFFF;stop-opacity:0"/>
							</linearGradient>
							
								<path id="_Path_5_00000133487556108253280820000016072454299718906242_" style="mask:url(#mask-3_00000110430841383158520900000014680864199063975835_);fill:url(#_Path_5_00000087410060686365692070000002922688502450022324_);" d="
								M120.3,38.1c-0.2-1.3-1.1-2.3-2.3-2.7c-1.2-0.4-2.6-0.1-3.5,0.8L96.8,54.1l-14-26.5c-0.6-1.1-1.7-1.9-3-1.9s-2.4,0.7-3,1.9
								L69.1,42L49.9,6.4c-1.5-2.9-5.9-2.1-6.4,1.1L25,125.7l49.5,27.7c3.1,1.7,6.9,1.7,10,0l50-27.7L120.3,38.1z"/>
						</g>
					</g>
				</g>
			</g>
		</g>
	</g>
</g>
</svg>
