<?xml version="1.0" encoding="utf-8"?>
<!-- Generator: Adobe Illustrator 26.1.0, SVG Export Plug-In . SVG Version: 6.00 Build 0)  -->
<svg version="1.1" id="Layer_1" xmlns="http://www.w3.org/2000/svg" xmlns:xlink="http://www.w3.org/1999/xlink" x="0px" y="0px"
	 viewBox="0 0 160 160" style="enable-background:new 0 0 160 160;" xml:space="preserve">
<style type="text/css">
	.st0{fill:url(#path-2_00000183219255063680707660000014516692869702845314_);}
	.st1{filter:url(#Adobe_OpacityMaskFilter);}
	.st2{fill-rule:evenodd;clip-rule:evenodd;fill:#FFFFFF;}
	.st3{mask:url(#mask-3_00000085953586939252143840000006171635133726798487_);}
	.st4{fill:#FFA000;}
	.st5{fill:#F57C00;}
	.st6{fill:#FFCA28;}
	.st7{fill:#FFFFFF;fill-opacity:0.2;}
	.st8{opacity:0.2;fill:#A52714;enable-background:new    ;}
	.st9{filter:url(#Adobe_OpacityMaskFilter_00000051347554433683213020000000388761471657214370_);}
	.st10{mask:url(#mask-3_00000019648013039481076370000001803676529108312208_);fill:none;}
	.st11{filter:url(#Adobe_OpacityMaskFilter_00000004546160350691837020000011841141600947308215_);}
	
		.st12{mask:url(#mask-3_00000093156562713257795670000003082078241897731502_);fill:url(#_Path_5_00000173161680415334916200000006580362339309108647_);}
</style>
<desc>Created with Sketch.</desc>
<g id="Page-1">
	<g id="styleguide" transform="translate(-664.000000, -1272.000000)">
		<g id="Group-16" transform="translate(40.000000, 1187.000000)">
			<g id="Group-9" transform="translate(114.000000, 0.000000)">
				<g id="Group-26" transform="translate(405.000000, 1.000000)">
					<g id="logo_lockup_firebase_vertical" transform="translate(105.193370, 83.977901)">
						<g id="_Group_">
							<g id="_Path_5">
								
									<linearGradient id="path-2_00000070076885396176376430000007396680931594280601_" gradientUnits="userSpaceOnUse" x1="-223.4451" y1="474.219" x2="-222.402" y2="473.4604" gradientTransform="matrix(109.5018 0 0 -150.0389 24488.8203 71181.4766)">
									<stop  offset="0" style="stop-color:#FFFFFF;stop-opacity:0.1"/>
									<stop  offset="1" style="stop-color:#FFFFFF;stop-opacity:0"/>
								</linearGradient>
								
									<path id="path-2_00000080886607873502109560000002822522496138418099_" style="fill:url(#path-2_00000070076885396176376430000007396680931594280601_);" d="
									M120.3,38.1c-0.2-1.3-1.1-2.3-2.3-2.7c-1.2-0.4-2.6-0.1-3.5,0.8L96.8,54.1l-14-26.5c-0.6-1.1-1.7-1.9-3-1.9s-2.4,0.7-3,1.9
									L69.1,42L49.9,6.4c-1.5-2.9-5.9-2.1-6.4,1.1L25,125.7l49.5,27.7c3.1,1.7,6.9,1.7,10,0l50-27.7L120.3,38.1z"/>
							</g>
							<defs>
								<filter id="Adobe_OpacityMaskFilter" filterUnits="userSpaceOnUse" x="18.6" y="4.6" width="122.1" height="154.3">
									<feColorMatrix  type="matrix" values="1 0 0 0 0  0 1 0 0 0  0 0 1 0 0  0 0 0 1 0"/>
								</filter>
							</defs>
							
								<mask maskUnits="userSpaceOnUse" x="18.6" y="4.6" width="122.1" height="154.3" id="mask-3_00000085953586939252143840000006171635133726798487_">
								<g class="st1">
									<path id="path-2_00000118363512270792082970000002244972399629617024_" class="st2" d="M120.3,38.1
										c-0.2-1.3-1.1-2.3-2.3-2.7c-1.2-0.4-2.6-0.1-3.5,0.8L96.8,54.1l-14-26.5c-0.6-1.1-1.7-1.9-3-1.9s-2.4,0.7-3,1.9L69.1,42
										L49.9,6.4c-1.5-2.9-5.9-2.1-6.4,1.1L25,125.7l49.5,27.7c3.1,1.7,6.9,1.7,10,0l50-27.7L120.3,38.1z"/>
								</g>
							</mask>
							<g id="_Group_2" class="st3">
								<g transform="translate(-6.346125, -0.160154)">
									<g id="_Group_3">
										<path id="_Path_" class="st4" d="M31.3,125.8L49.9,7.7c0.5-3.2,4.9-4,6.4-1.1l19.2,35.6l7.6-14.5c0.6-1.1,1.8-1.8,3-1.8
											c1.3,0,2.4,0.7,3,1.8l51.7,98.1H31.3z"/>
										<g id="_Group_4" transform="translate(0.000000, 30.119310)">
											<g style="opacity:0.12;enable-background:new    ;">
												
													<image style="overflow:visible;" width="87" height="112" id="Bitmap" xlink:href="B9126A27.png"  transform="matrix(0.8448 0 0 0.8448 24.9637 4.5)">
												</image>
											</g>
											<polygon id="Shape" class="st5" points="95.3,49.7 75.4,12.1 31.3,95.7 											"/>
										</g>
									</g>
									<g id="_Group_5" transform="translate(3.421930, 23.299844)">
										<g style="opacity:0.2;enable-background:new    ;">
											
												<image style="overflow:visible;" width="140" height="155" id="_Image_" xlink:href="B9126A25.png"  transform="matrix(0.8469 0 0 0.8469 25.0984 4.5)">
											</image>
										</g>
										<g id="_Group_6" transform="translate(3.421930, 7.387755)">
											<path id="_Path_2" class="st6" d="M134,95.1L119.8,7.6c-0.2-1.3-1.1-2.3-2.3-2.7s-2.6-0.1-3.5,0.8L24.5,95.1L74,122.8
												c3.1,1.7,6.9,1.7,10,0L134,95.1z"/>
										</g>
									</g>
									<path id="_Compound_Path_" class="st7" d="M126.6,38.3c-0.2-1.3-1.1-2.3-2.3-2.7s-2.6-0.1-3.5,0.8l-17.7,17.8l-14-26.5
										c-0.6-1.1-1.7-1.9-3-1.9s-2.4,0.7-3,1.9l-7.6,14.5L56.2,6.6c-1.5-2.9-5.9-2.1-6.4,1.1L31.3,125.8h-0.1l0.1,0.1l0.5,0.3
										L103,55.1l17.8-17.7c0.9-0.9,2.3-1.2,3.5-0.8c1.2,0.4,2.1,1.4,2.3,2.7l14,86.7l0.2-0.1L126.6,38.3z M31.5,125.7L49.9,8.5
										c0.5-3.2,4.9-4,6.4-1.1l19.2,35.6l7.6-14.5c0.6-1.1,1.8-1.8,3-1.8c1.3,0,2.4,0.7,3,1.8l13.7,25.9L31.5,125.7z"/>
									<path id="_Path_3" class="st8" d="M90.9,152.7c-3.1,1.7-6.9,1.7-10,0l-49.4-27.6l-0.1,0.8l49.5,27.7c3.1,1.7,6.9,1.7,10,0
										l50-27.7l-0.1-0.8L90.9,152.7z"/>
								</g>
							</g>
							<defs>
								
									<filter id="Adobe_OpacityMaskFilter_00000047036220361513409540000010350950114705316504_" filterUnits="userSpaceOnUse" x="-2.4" y="-2.2" width="164.3" height="163.7">
									<feColorMatrix  type="matrix" values="1 0 0 0 0  0 1 0 0 0  0 0 1 0 0  0 0 0 1 0"/>
								</filter>
							</defs>
							
								<mask maskUnits="userSpaceOnUse" x="-2.4" y="-2.2" width="164.3" height="163.7" id="mask-3_00000019648013039481076370000001803676529108312208_">
								<g style="filter:url(#Adobe_OpacityMaskFilter_00000047036220361513409540000010350950114705316504_);">
									<path id="path-2_00000004536189510494384560000016748130618884447376_" class="st2" d="M120.3,38.1
										c-0.2-1.3-1.1-2.3-2.3-2.7c-1.2-0.4-2.6-0.1-3.5,0.8L96.8,54.1l-14-26.5c-0.6-1.1-1.7-1.9-3-1.9s-2.4,0.7-3,1.9L69.1,42
										L49.9,6.4c-1.5-2.9-5.9-2.1-6.4,1.1L25,125.7l49.5,27.7c3.1,1.7,6.9,1.7,10,0l50-27.7L120.3,38.1z"/>
								</g>
							</mask>
							<polygon id="_Path_4" class="st10" points="-2.4,-2.2 161.9,-2.2 161.9,161.5 -2.4,161.5 							"/>
							<defs>
								
									<filter id="Adobe_OpacityMaskFilter_00000114043559423193597220000016381627924543297448_" filterUnits="userSpaceOnUse" x="25" y="4.6" width="109.5" height="150">
									<feColorMatrix  type="matrix" values="1 0 0 0 0  0 1 0 0 0  0 0 1 0 0  0 0 0 1 0"/>
								</filter>
							</defs>
							
								<mask maskUnits="userSpaceOnUse" x="25" y="4.6" width="109.5" height="150" id="mask-3_00000093156562713257795670000003082078241897731502_">
								<g style="filter:url(#Adobe_OpacityMaskFilter_00000114043559423193597220000016381627924543297448_);">
									<path id="path-2_00000137096334882062143230000006154789596513973951_" class="st2" d="M120.3,38.1
										c-0.2-1.3-1.1-2.3-2.3-2.7c-1.2-0.4-2.6-0.1-3.5,0.8L96.8,54.1l-14-26.5c-0.6-1.1-1.7-1.9-3-1.9s-2.4,0.7-3,1.9L69.1,42
										L49.9,6.4c-1.5-2.9-5.9-2.1-6.4,1.1L25,125.7l49.5,27.7c3.1,1.7,6.9,1.7,10,0l50-27.7L120.3,38.1z"/>
								</g>
							</mask>
							
								<linearGradient id="_Path_5_00000095296679538606552960000002703545482472546194_" gradientUnits="userSpaceOnUse" x1="-223.4451" y1="474.219" x2="-222.402" y2="473.4604" gradientTransform="matrix(109.5018 0 0 -150.0389 24488.8203 71181.4766)">
								<stop  offset="0" style="stop-color:#FFFFFF;stop-opacity:0.1"/>
								<stop  offset="1" style="stop-color:#FFFFFF;stop-opacity:0"/>
							</linearGradient>
							
								<path id="_Path_5_00000133487556108253280820000016072454299718906242_" style="mask:url(#mask-3_00000093156562713257795670000003082078241897731502_);fill:url(#_Path_5_00000095296679538606552960000002703545482472546194_);" d="
								M120.3,38.1c-0.2-1.3-1.1-2.3-2.3-2.7c-1.2-0.4-2.6-0.1-3.5,0.8L96.8,54.1l-14-26.5c-0.6-1.1-1.7-1.9-3-1.9s-2.4,0.7-3,1.9
								L69.1,42L49.9,6.4c-1.5-2.9-5.9-2.1-6.4,1.1L25,125.7l49.5,27.7c3.1,1.7,6.9,1.7,10,0l50-27.7L120.3,38.1z"/>
						</g>
					</g>
				</g>
			</g>
		</g>
	</g>
</g>
</svg>
