<?xml version="1.0" encoding="utf-8"?>
<!-- Generator: Adobe Illustrator 26.1.0, SVG Export Plug-In . SVG Version: 6.00 Build 0)  -->
<svg version="1.1" xmlns="http://www.w3.org/2000/svg" xmlns:xlink="http://www.w3.org/1999/xlink" x="0px" y="0px"
	 viewBox="0 0 52 52" style="enable-background:new 0 0 52 52;" xml:space="preserve">
<style type="text/css">
	.st0{display:none;}
	.st1{display:inline;fill:#2C2C2C;}
	.st2{fill:none;stroke:#4A7EC0;stroke-width:2;stroke-miterlimit:10;}
	
		.st3{display:none;opacity:0.6;fill:none;stroke:#4A7EC0;stroke-width:2;stroke-linecap:round;stroke-linejoin:round;stroke-miterlimit:10;}
	.st4{fill:none;stroke:#4A7EC0;stroke-width:2;stroke-linecap:round;stroke-linejoin:round;stroke-miterlimit:10;}
	.st5{fill:#4A7EC0;}
	.st6{opacity:0.6;fill:#4A7EC0;}
</style>
<g id="Layer_2" class="st0">
	
		<image style="display:inline;overflow:visible;" width="325" height="196" xlink:href="7557B5E8.jpg"  transform="matrix(0.2889 0 0 0.2889 -27.4967 -69.6237)">
	</image>
	<rect x="0" class="st1" width="52" height="52"/>
	
		<image style="display:inline;overflow:visible;" width="224" height="224" xlink:href="7557B5E6.jpg"  transform="matrix(0.1949 0 0 0.1949 -49.3227 1.3913)">
	</image>
</g>
<g id="Layer_1">
	<path class="st2" d="M12,3c5,0,9,4,9,9c0,5-4,9-9,9c-5,0-9-4-9-9C3,7,7,3,12,3z"/>
	<path class="st2" d="M25,21c3.3,0,6,2.7,6,6s-2.7,6-6,6s-6-2.7-6-6S21.7,21,25,21z"/>
	<path class="st2" d="M25,37c3.3,0,6,2.7,6,6s-2.7,6-6,6s-6-2.7-6-6S21.7,37,25,37z"/>
	<path class="st3" d="M43,37c3.3,0,6,2.7,6,6s-2.7,6-6,6s-6-2.7-6-6S39.7,37,43,37z"/>
	<path class="st4" d="M27,25.6L24,28.7l-1.5-1.5"/>
	<path class="st4" d="M43,21c3.3,0,6,2.7,6,6s-2.7,6-6,6s-6-2.7-6-6S39.7,21,43,21z"/>
	<path class="st4" d="M45,25.6L42,28.7l-1.5-1.5"/>
	<path class="st2" d="M9,8.8C9,8,9.9,7.5,10.5,8l5.1,3.2c0.6,0.4,0.6,1.3,0,1.7l-5.1,3.2C9.9,16.5,9,16,9,15.2V8.8z"/>
	<path class="st2" d="M11,21v15c0,3.9,3.2,7,7,7h1"/>
	<path class="st5" d="M18.9,28c0.6,0,1-0.4,1-1s-0.4-1-1-1V28z M10,21c0,3.8,3.1,7,7,7v-2c-2.7,0-5-2.2-5-5H10z M17,28h2v-2h-2V28z"
		/>
	<path class="st2" d="M31.1,27H37"/>
	<path class="st6" d="M23,42c0.6,0,1,0.4,1,1c0,0.6-0.4,1-1,1s-1-0.4-1-1C22,42.4,22.4,42,23,42z"/>
	<path class="st6" d="M27,42c0.6,0,1,0.4,1,1c0,0.6-0.4,1-1,1s-1-0.4-1-1C26,42.4,26.4,42,27,42z"/>
	<path class="st6" d="M43,36c-3.5,0-6.4,2.6-6.9,6c0,0-0.1,0-0.1,0l-1,0c-0.6,0-1,0.5-1,1c0,0.5,0.5,1,1,1c0,0,0,0,0,0l1,0
		c0,0,0,0,0,0c0.5,3.4,3.4,6,6.9,6c3.9,0,7-3.1,7-7S46.9,36,43,36z M43,48c-2.8,0-5-2.2-5-5s2.2-5,5-5s5,2.2,5,5S45.8,48,43,48z"/>
</g>
</svg>
