<?xml version="1.0" encoding="utf-8"?>
<!-- Generator: Adobe Illustrator 26.1.0, SVG Export Plug-In . SVG Version: 6.00 Build 0)  -->
<svg version="1.1" id="Layer_1" xmlns="http://www.w3.org/2000/svg" xmlns:xlink="http://www.w3.org/1999/xlink" x="0px" y="0px"
	 viewBox="0 0 296 296" style="enable-background:new 0 0 296 296;" xml:space="preserve">
<style type="text/css">
	.st0{fill:#0E8AC8;}
	.st1{fill:#ED2025;}
</style>
<path class="st0" d="M79.9,226.8c0,0-11,6.4,7.9,8.6c22.9,2.6,34.6,2.2,59.8-2.5c0,0,6.6,4.2,15.9,7.8
	C107,264.8,35.5,239.2,79.9,226.8"/>
<path class="st0" d="M73,195.2c0,0-12.4,9.2,6.5,11.1c24.4,2.5,43.8,2.7,77.2-3.7c0,0,4.6,4.7,11.9,7.2
	C100.2,229.8,24.1,211.4,73,195.2"/>
<path class="st1" d="M131.3,141.5c13.9,16-3.7,30.5-3.7,30.5s35.4-18.3,19.1-41.1c-15.2-21.3-26.8-31.9,36.2-68.5
	C182.9,62.4,84,87.1,131.3,141.5"/>
<path class="st0" d="M206.1,250.2c0,0,8.2,6.7-9,11.9C164.4,272,61.2,275,32.6,262.5c-10.3-4.5,9-10.7,15.1-12
	c6.3-1.4,10-1.1,10-1.1c-11.5-8.1-74.1,15.9-31.8,22.7C141.1,290.8,236,263.7,206.1,250.2"/>
<path class="st0" d="M85.2,162.4c0,0-52.5,12.5-18.6,17c14.3,1.9,42.9,1.5,69.4-0.7c21.7-1.8,43.5-5.7,43.5-5.7s-7.7,3.3-13.2,7.1
	c-53.3,14-156.3,7.5-126.6-6.8C64.9,161,85.2,162.4,85.2,162.4"/>
<path class="st0" d="M179.4,215c54.2-28.2,29.1-55.2,11.6-51.6c-4.3,0.9-6.2,1.7-6.2,1.7s1.6-2.5,4.6-3.6
	c34.6-12.2,61.2,35.9-11.2,54.9C178.3,216.5,179.2,215.7,179.4,215"/>
<path class="st1" d="M146.7,3.4c0,0,30,30-28.5,76.2c-46.9,37-10.7,58.1,0,82.3c-27.4-24.7-47.5-46.4-34-66.7
	C104.1,65.5,158.9,51.1,146.7,3.4"/>
<path class="st0" d="M90.6,291.4c52,3.3,131.9-1.8,133.8-26.5c0,0-3.6,9.3-43,16.7c-44.4,8.4-99.2,7.4-131.6,2
	C49.7,283.7,56.4,289.2,90.6,291.4"/>
</svg>
