<?xml version="1.0" encoding="utf-8"?>
<!-- Generator: Adobe Illustrator 26.1.0, SVG Export Plug-In . SVG Version: 6.00 Build 0)  -->
<svg version="1.1" id="Layer_1" xmlns="http://www.w3.org/2000/svg" xmlns:xlink="http://www.w3.org/1999/xlink" x="0px" y="0px"
	 viewBox="0 0 72 72" style="enable-background:new 0 0 72 72;" xml:space="preserve">
<path d="M62.3,2.1H9.7c-4.2,0-7.5,3.4-7.5,7.5v52.7c0,4.2,3.4,7.5,7.5,7.5h52.7c4.2,0,7.5-3.4,7.5-7.5V9.7
	C69.9,5.5,66.5,2.1,62.3,2.1z M22.6,60.5H12.5V27.8h10.1V60.5z M17.5,23.6c-3.3,0-6-2.7-6-6c0-3.3,2.7-6,6-6c3.3,0,6,2.7,6,6
	C23.5,20.9,20.8,23.6,17.5,23.6z M60.5,60.5H50.4V43.3c0-4.7-1.8-7.3-5.5-7.3c-4,0-6.2,2.7-6.2,7.3v17.1h-9.7V27.8h9.7v4.4
	c0,0,2.9-5.4,9.8-5.4c6.9,0,11.9,4.2,11.9,13V60.5z"/>
</svg>
