<svg id="Layer_1" data-name="Layer 1" xmlns="http://www.w3.org/2000/svg" viewBox="0 0 600.11 517.87"><defs><style>.cls-1{fill:#007efd;}</style></defs><path class="cls-1" d="M.5,153.47Q.5,86.24.52,19C.53,8.73,5.11,2.48,13.72.4,19-.87,23.47,1.05,27.91,3.61Q94.77,42,161.68,80.39c13.85,8,27.86,15.64,41.52,23.91,7.93,4.79,15,4.43,22.88-.13Q313.4,53.74,400.9,3.65C406,.71,411.15-1.24,417,.91c6.32,2.32,10.2,6.76,11.09,13.51a52.37,52.37,0,0,1,.27,7q0,132.21.14,264.42c0,10-3.58,16.44-12.32,21.35C386.6,323.79,357.33,341,327.85,357.8c-6.43,3.66-10.82,8.46-10.7,16.11.11,7.42,4.44,12.11,10.72,15.61Q352.07,403,376,416.9c6.71,3.88,13.07,3.87,19.78,0q54.06-31.16,108.24-62.1c6.93-4,10-9.63,10-17.6-.07-30.15.24-60.31.1-90.47,0-9.13,3.37-15.38,11.47-19.83,15.76-8.64,31.48-17.39,46.72-26.89,13.92-8.67,27.93.78,27.79,15.88-.52,56.64-.27,113.3-.14,169.94,0,8.39-3.34,14.1-10.6,18.26Q493,459.26,396.74,514.69c-7.4,4.27-14.16,4.22-21.59,0q-75.07-43.15-150.36-86c-6.92-3.94-10.36-9.42-10.34-17.4.09-27.66.12-55.32-.07-83,0-3.63,2-4.88,4.44-6.31Q278.37,287.89,338,253.8c3.15-1.79,4.38-3.67,4.38-7.33,0-26.82.23-53.65.26-80.47,0-12.69-9.13-20.64-20.52-18.18a25.75,25.75,0,0,0-7.23,3.3c-29.56,17-59.2,33.91-88.62,51.16-8.07,4.73-15.21,4.82-23.33.06-29.42-17.26-59.07-34.12-88.63-51.15-3.93-2.27-7.9-4.36-12.64-3.94-9,.79-15.4,7.73-15.49,17.14-.13,13.49,0,27,0,40.48q0,56.49,0,113c0,16.53-12.74,23.88-27.2,15.69-16.36-9.27-32.62-18.72-49-28C3.14,301.75,0,296.2,0,288.43q.12-67.47,0-135Z"/><path class="cls-1" d="M516.67,77.51c0-9.5.15-19,0-28.48-.16-7.6,3-13,9.44-16.88C541.81,22.82,557.44,13.3,573.18,4c13.31-7.9,26.65-.41,26.71,15,.06,19.32,0,38.65,0,58,0,7.35-3,12.73-9.28,16.48-15.87,9.44-31.64,19.05-47.54,28.45-13.1,7.73-26.26.3-26.42-14.84C516.59,97.17,516.67,87.34,516.67,77.51Z"/></svg>